<svg width="1617" height="866" viewBox="0 0 1617 866" fill="none" xmlns="http://www.w3.org/2000/svg">
<g clip-path="url(#clip0_1_116)">
<mask id="mask0_1_116" style="mask-type:luminance" maskUnits="userSpaceOnUse" x="0" y="0" width="1617" height="866">
<path d="M0 0H1617V866H0V0Z" fill="white"/>
</mask>
<g mask="url(#mask0_1_116)">
<path d="M325.469 866.023L285.826 550.29C276.365 471.917 330.128 408.377 405.993 408.377H532.844" stroke="#39667C" stroke-width="6" stroke-linecap="round" stroke-linejoin="round"/>
<path d="M612.351 404.879L628.103 381.83L623.958 350.884C622.845 348.695 621.703 346.413 620.532 344.061C534.517 357.36 524.052 394.812 543.368 434.924C400.686 463.876 338.565 691.455 375.68 799.434C386.254 830.124 394.74 860.814 426.155 861.162" stroke="#39667C" stroke-width="6" stroke-linecap="round" stroke-linejoin="round"/>
<path d="M657.214 487.61V487.026C661.88 487.497 666.409 487.528 670.78 483.599C681.609 473.85 685.449 470.924 685.449 470.924C685.449 470.924 686.433 472.152 688.176 474.229C690.312 470.136 692.537 465.891 694.811 461.594C648.058 423.968 612.351 404.879 612.351 404.879L609.712 402.914L592.543 424.674C592.543 424.674 620.483 444.684 657.214 487.61ZM883.213 840.825C883.213 840.825 808.392 631.731 817.912 566.934C823.1 531.589 814.958 491.507 803.715 460.541L782.283 461.983L756.627 525.021C758.301 525.451 759.975 525.809 761.648 526.044C761.648 526.044 760.664 532.663 758.242 547.875C756.618 558.013 759.404 559.128 761.609 566.167C764.454 570.903 766.64 576.223 764.237 584.448C763.45 587.138 761.579 612.478 757.346 646.852C765.222 664.243 772.743 682.596 779.792 702.094C825.158 827.843 820.442 841.561 820.442 841.561L883.213 840.825Z" fill="#4FC2F0"/>
<path d="M1136.59 859.515C1131.2 822.687 1092.8 625.01 873.082 451.62C868.16 420.643 855.706 371.886 791.705 349.094" stroke="#39667C" stroke-width="6" stroke-linecap="round" stroke-linejoin="round"/>
<path d="M835.731 555.926C835.731 555.926 833.368 622.709 847.436 670.718" stroke="#39667C" stroke-width="8" stroke-linecap="round" stroke-linejoin="round"/>
<path d="M870.168 450.853C870.867 455.211 871.409 459.221 871.93 462.74C877.975 503.476 865.039 530.525 856.484 549.277C879.452 532.397 894.938 500.295 902.755 475.814C893.313 467.958 880.427 458.791 870.168 450.853ZM545.642 433.114C529.575 436.52 503.171 444.837 484.141 458.515C497.432 466.044 563.255 507.006 617.047 531.579C617.47 531.323 620.424 526.208 621.9 524.213C592.13 499.681 560.813 464.715 545.642 433.114Z" fill="#39667C"/>
<path d="M588.969 270.179C588.969 270.179 552.435 280.47 567.222 312.889C577.5 335.396 597.013 327.396 608.649 320.572M610.195 272.337L598.716 276.337L598.617 276.102C598.617 276.102 565.873 171.335 667.64 135.356C677.11 132.031 742.362 110.466 763.45 166.046C777.627 203.437 785.68 245.258 789.618 277.994" stroke="#39667C" stroke-width="6" stroke-linecap="round" stroke-linejoin="round"/>
<path d="M713.251 413.523C701.004 413.523 689.357 411.405 680.192 407.641C650.46 395.436 644.14 387.569 633.468 369.012C622.796 350.454 589.353 279.611 589.353 279.611M789.834 277.994C789.834 277.994 796.273 311.283 792.414 343.917" stroke="#39667C" stroke-width="6" stroke-linecap="round" stroke-linejoin="round"/>
<path d="M591.913 288.869C591.913 288.869 573.09 266.189 559.494 239.089C546.695 213.616 552.002 182.056 573.218 163.642C590.978 148.185 607.881 152.277 607.881 152.277C607.881 152.277 577.303 119.909 601.413 78.0366C605.634 70.7103 611.249 64.3563 617.915 59.3641C624.582 54.3718 632.159 50.8463 640.182 49.0036C679.759 39.9908 700.236 71.3564 700.236 71.3564C700.236 71.3564 722.978 -19.8861 820.649 5.2186C830.494 7.75567 843.518 18.5792 850.38 26.3541C891.945 73.5047 813.639 162.507 766 180.328C713.694 199.888 680.054 198.813 659.498 189.668C674.275 194.343 674.817 280.961 591.913 288.869Z" fill="#39667C"/>
<path d="M742.864 260.665L761.314 311.672L742.352 311.57" stroke="#39667C" stroke-width="8" stroke-linecap="round" stroke-linejoin="round"/>
<path d="M732.734 355.876C737.883 355.876 742.057 351.539 742.057 346.188C742.057 340.838 737.883 336.5 732.734 336.5C727.585 336.5 723.411 340.838 723.411 346.188C723.411 351.539 727.585 355.876 732.734 355.876ZM764.689 264.883C767.548 264.14 768.968 259.81 767.861 255.211C766.755 250.612 763.54 247.487 760.681 248.229C757.822 248.972 756.402 253.303 757.508 257.901C758.615 262.5 761.83 265.626 764.689 264.883ZM714.625 276.928C717.483 276.185 718.904 271.855 717.797 267.256C716.691 262.658 713.476 259.532 710.617 260.275C707.758 261.018 706.338 265.348 707.444 269.947C708.551 274.545 711.766 277.671 714.625 276.928Z" fill="#39667C"/>
<path d="M679.946 236.102C681.72 231.942 684.535 228.354 688.099 225.71C691.663 223.067 695.844 221.466 700.206 221.074M747.541 207.846C747.541 207.846 760.969 200.245 767.496 211.509" stroke="#39667C" stroke-width="8" stroke-linecap="round" stroke-linejoin="round"/>
<path d="M1178.19 211.857H1175.18C1172.46 211.857 1170.26 214.147 1170.26 216.972V225.043C1170.26 227.868 1172.46 230.158 1175.18 230.158H1178.19C1180.91 230.158 1183.12 227.868 1183.12 225.043V216.972C1183.12 214.147 1180.91 211.857 1178.19 211.857Z" fill="#FF9B2E"/>
<path d="M1160.4 211.857H1081.83C1079.11 211.857 1076.91 214.147 1076.91 216.972V225.043C1076.91 227.868 1079.11 230.158 1081.83 230.158H1160.4C1163.11 230.158 1165.32 227.868 1165.32 225.043V216.972C1165.32 214.147 1163.11 211.857 1160.4 211.857ZM1168.4 296.869H1081.83C1079.11 296.869 1076.91 299.159 1076.91 301.984V310.056C1076.91 312.881 1079.11 315.171 1081.83 315.171H1168.4C1171.12 315.171 1173.32 312.881 1173.32 310.056V301.984C1173.32 299.159 1171.12 296.869 1168.4 296.869Z" fill="#4FC2F0"/>
<path d="M1245.9 268.562H1106.21C1103.49 268.562 1101.29 270.852 1101.29 273.677V281.749C1101.29 284.574 1103.49 286.864 1106.21 286.864H1245.9C1248.62 286.864 1250.82 284.574 1250.82 281.749V273.677C1250.82 270.852 1248.62 268.562 1245.9 268.562Z" fill="#1779A0"/>
<path d="M1335.03 268.562H1264.11C1261.39 268.562 1259.19 270.852 1259.19 273.677V281.749C1259.19 284.574 1261.39 286.864 1264.11 286.864H1335.03C1337.75 286.864 1339.96 284.574 1339.96 281.749V273.677C1339.96 270.852 1337.75 268.562 1335.03 268.562Z" fill="#FF9B2E"/>
<path d="M1362.37 240.266H1359.36C1356.64 240.266 1354.44 242.556 1354.44 245.381V253.452C1354.44 256.277 1356.64 258.567 1359.36 258.567H1362.37C1365.09 258.567 1367.29 256.277 1367.29 253.452V245.381C1367.29 242.556 1365.09 240.266 1362.37 240.266ZM1226.61 240.215H1081.83C1079.11 240.215 1076.91 242.505 1076.91 245.33V253.401C1076.91 256.226 1079.11 258.516 1081.83 258.516H1226.61C1229.33 258.516 1231.53 256.226 1231.53 253.401V245.33C1231.53 242.505 1229.33 240.215 1226.61 240.215ZM1272.27 211.857H1193.71C1190.99 211.857 1188.79 214.147 1188.79 216.972V225.043C1188.79 227.868 1190.99 230.158 1193.71 230.158H1272.27C1274.99 230.158 1277.19 227.868 1277.19 225.043V216.972C1277.19 214.147 1274.99 211.857 1272.27 211.857Z" fill="#4FC2F0"/>
<path d="M1342.6 240.153H1243.38C1240.66 240.153 1238.45 242.443 1238.45 245.268V253.452C1238.45 256.277 1240.66 258.567 1243.38 258.567H1342.6C1345.32 258.567 1347.53 256.277 1347.53 253.452V245.268C1347.53 242.443 1345.32 240.153 1342.6 240.153Z" fill="#1779A0"/>
<g filter="url(#filter0_d_1_116)">
<path d="M1160.4 395.354H1081.83C1079.11 395.354 1076.91 397.644 1076.91 400.469V408.541C1076.91 411.366 1079.11 413.656 1081.83 413.656H1160.4C1163.11 413.656 1165.32 411.366 1165.32 408.541V400.469C1165.32 397.644 1163.11 395.354 1160.4 395.354ZM1168.4 480.367H1081.83C1079.11 480.367 1076.91 482.657 1076.91 485.482V493.553C1076.91 496.378 1079.11 498.668 1081.83 498.668H1168.4C1171.12 498.668 1173.32 496.378 1173.32 493.553V485.482C1173.32 482.657 1171.12 480.367 1168.4 480.367Z" fill="#4FC2F0"/>
<path d="M1245.9 452.07H1106.21C1103.49 452.07 1101.29 454.36 1101.29 457.185V465.257C1101.29 468.082 1103.49 470.372 1106.21 470.372H1245.9C1248.62 470.372 1250.82 468.082 1250.82 465.257V457.185C1250.82 454.36 1248.62 452.07 1245.9 452.07Z" fill="#FF9B2E"/>
<path d="M1335.03 452.07H1264.11C1261.39 452.07 1259.19 454.36 1259.19 457.185V465.257C1259.19 468.082 1261.39 470.372 1264.11 470.372H1335.03C1337.75 470.372 1339.96 468.082 1339.96 465.257V457.185C1339.96 454.36 1337.75 452.07 1335.03 452.07Z" fill="#1779A0"/>
<path d="M1362.37 423.763H1359.36C1356.64 423.763 1354.44 426.053 1354.44 428.878V436.95C1354.44 439.775 1356.64 442.065 1359.36 442.065H1362.37C1365.09 442.065 1367.29 439.775 1367.29 436.95V428.878C1367.29 426.053 1365.09 423.763 1362.37 423.763ZM1384.86 395.354H1381.85C1379.13 395.354 1376.92 397.644 1376.92 400.469V408.541C1376.92 411.366 1379.13 413.656 1381.85 413.656H1384.86C1387.58 413.656 1389.78 411.366 1389.78 408.541V400.469C1389.78 397.644 1387.58 395.354 1384.86 395.354ZM1226.61 423.712H1081.83C1079.11 423.712 1076.91 426.002 1076.91 428.827V436.899C1076.91 439.724 1079.11 442.014 1081.83 442.014H1226.61C1229.33 442.014 1231.53 439.724 1231.53 436.899V428.827C1231.53 426.002 1229.33 423.712 1226.61 423.712Z" fill="#4FC2F0"/>
<path d="M1272.27 395.354H1175.18C1172.46 395.354 1170.26 397.644 1170.26 400.469V408.541C1170.26 411.366 1172.46 413.656 1175.18 413.656H1272.27C1274.99 413.656 1277.19 411.366 1277.19 408.541V400.469C1277.19 397.644 1274.99 395.354 1272.27 395.354Z" fill="#1779A0"/>
<path d="M1367.49 395.354H1288.93C1286.21 395.354 1284.01 397.644 1284.01 400.469V408.541C1284.01 411.366 1286.21 413.656 1288.93 413.656H1367.49C1370.21 413.656 1372.41 411.366 1372.41 408.541V400.469C1372.41 397.644 1370.21 395.354 1367.49 395.354Z" fill="#FF9B2E"/>
<path d="M1178.19 367.927H1175.18C1172.46 367.927 1170.26 370.217 1170.26 373.042V381.114C1170.26 383.939 1172.46 386.229 1175.18 386.229H1178.19C1180.91 386.229 1183.12 383.939 1183.12 381.114V373.042C1183.12 370.217 1180.91 367.927 1178.19 367.927Z" fill="#39667C"/>
<path d="M1160.4 367.927H1081.83C1079.11 367.927 1076.91 370.217 1076.91 373.042V381.114C1076.91 383.939 1079.11 386.229 1081.83 386.229H1160.4C1163.11 386.229 1165.32 383.939 1165.32 381.114V373.042C1165.32 370.217 1163.11 367.927 1160.4 367.927ZM1272.27 367.927H1193.71C1190.99 367.927 1188.79 370.217 1188.79 373.042V381.114C1188.79 383.939 1190.99 386.229 1193.71 386.229H1272.27C1274.99 386.229 1277.19 383.939 1277.19 381.114V373.042C1277.19 370.217 1274.99 367.927 1272.27 367.927Z" fill="#4FC2F0"/>
<path d="M1342.6 423.661H1243.38C1240.66 423.661 1238.45 425.951 1238.45 428.776V436.96C1238.45 439.785 1240.66 442.075 1243.38 442.075H1342.6C1345.32 442.075 1347.53 439.785 1347.53 436.96V428.776C1347.53 425.951 1345.32 423.661 1342.6 423.661Z" fill="#1779A0"/>
</g>
<path d="M713.95 423.569C714.354 410.341 714.157 389.523 709.638 380.429C702.461 365.994 709.155 350.587 723.834 366.352C732.202 375.334 736.308 387.252 738.296 395.835" stroke="#39667C" stroke-width="6" stroke-linecap="round" stroke-linejoin="round"/>
<path d="M837.897 402.342C852.072 402.342 863.562 390.401 863.562 375.672C863.562 360.942 852.072 349.002 837.897 349.002C823.722 349.002 812.231 360.942 812.231 375.672C812.231 390.401 823.722 402.342 837.897 402.342Z" stroke="#FF9B2E" stroke-width="6" stroke-linecap="round" stroke-linejoin="round"/>
<path d="M671.656 863.802C746.674 857.981 761.599 593.491 764.198 584.458C769.406 566.617 753.054 562.433 755.2 548.305C757.346 534.177 755.682 527.845 755.682 527.845C720.467 521.891 686.266 475.876 686.266 475.876C686.266 475.876 682.722 478.566 672.631 487.528C662.54 496.489 651.277 482.72 639.759 496.448C632.159 505.604 549.344 650.074 549.344 650.074" stroke="#39667C" stroke-width="6" stroke-linecap="round" stroke-linejoin="round"/>
<path d="M758.242 547.885C760.684 532.673 761.648 526.054 761.648 526.054C724.149 520.059 685.479 470.924 685.479 470.924C685.479 470.924 681.659 473.85 670.81 483.599C666.439 487.528 661.949 487.497 657.243 487.026C653.926 529.696 727.585 567.681 762.475 569.471C760.25 559.22 756.401 559.435 758.242 547.885Z" fill="#39667C"/>
<path d="M500.592 625.839C500.592 625.839 544.992 586.023 570.766 611.108M0 863.3H1611.09M670.869 507.998L745.257 552.939L782.49 461.461C818.414 461.523 818.256 441.247 810.735 440.551C803.213 439.855 767.093 445.124 767.093 445.124C767.093 445.124 768.264 442.392 797.612 436.602C826.959 430.812 821.446 413.82 815.135 413.359C808.825 412.899 762.19 425.042 762.19 425.042L802.258 410.178C816.524 405.472 817.026 391.109 809.573 389.083C804.651 387.743 778.404 395.989 757.632 403.538C757.632 403.538 782.598 390.239 794.442 382.198C806.285 374.158 798.005 363.672 791.084 364.326C784.164 364.981 736.081 398.393 726.925 406.669C717.77 414.945 670.869 507.998 670.869 507.998Z" stroke="#39667C" stroke-width="6" stroke-linecap="round" stroke-linejoin="round"/>
<path d="M837.033 427.498L837.033 427.498L831.61 340.399L723.951 347.646L727.548 405.413C733.017 400.762 746.611 390.917 759.86 381.988C766.825 377.294 773.708 372.844 779.28 369.527C782.065 367.868 784.53 366.489 786.517 365.502C787.51 365.009 788.391 364.611 789.136 364.324C789.873 364.041 790.511 363.855 791.008 363.808C794.676 363.462 798.666 366.078 800.202 369.798C800.979 371.678 801.136 373.851 800.315 376.08C799.495 378.303 797.716 380.541 794.693 382.592C788.752 386.621 779.532 391.965 771.81 396.296C768.733 398.022 765.891 399.588 763.585 400.848C772.299 397.785 781.489 394.769 789.389 392.477C794.283 391.056 798.69 389.911 802.186 389.204C803.933 388.851 805.462 388.606 806.714 388.492C807.95 388.379 808.972 388.388 809.676 388.581L809.676 388.581C813.759 389.7 815.534 394.134 814.522 398.713C813.502 403.329 809.67 408.216 802.395 410.629L771.226 422.192C775.451 421.128 780.726 419.82 786.15 418.522C792.376 417.032 798.803 415.556 804.071 414.48C806.704 413.943 809.053 413.504 810.943 413.215C812.817 412.928 814.289 412.778 815.142 412.84C816.938 412.971 818.595 414.262 819.595 416.113C820.604 417.978 820.98 420.463 820.191 423.104C818.609 428.401 812.415 434.164 797.679 437.073L797.582 436.582L797.679 437.073C783.018 439.966 775.416 442.091 771.488 443.485C770.683 443.77 770.036 444.024 769.515 444.247C770.405 444.121 771.501 443.967 772.757 443.794C776.264 443.31 781.017 442.672 786.006 442.056C790.994 441.44 796.221 440.846 800.673 440.449C805.107 440.055 808.82 439.852 810.752 440.033C810.752 440.033 810.752 440.033 810.752 440.033L810.705 440.531C817.321 441.152 818.24 456.945 793.826 460.662L837.033 427.498ZM837.033 427.498C837.281 431.459 836.774 435.433 835.542 439.19L835.542 439.19C834.311 442.948 832.379 446.415 829.858 449.394C827.338 452.373 824.278 454.805 820.854 456.553L820.854 456.553C817.431 458.301 813.71 459.33 809.904 459.581L809.903 459.581L797.933 460.386L837.033 427.498Z" fill="#FF9B2E" stroke="black"/>
</g>
<path d="M206.985 811.34C203.571 811.592 200.141 811.168 196.89 810.094C193.639 809.019 190.632 807.315 188.04 805.079C185.448 802.842 183.321 800.117 181.782 797.059C180.243 794.001 179.322 790.669 179.07 787.255C178.819 783.841 179.242 780.41 180.317 777.159C181.391 773.909 183.095 770.902 185.332 768.309C187.568 765.717 190.293 763.591 193.351 762.052C196.41 760.513 199.741 759.592 203.155 759.34C204.731 759.222 206.315 759.248 207.885 759.42" stroke="#4B6A7D" stroke-width="5" stroke-miterlimit="10"/>
<path d="M205.095 835.86V751.55H312.705V835.86C312.705 843.419 309.703 850.668 304.358 856.013C299.013 861.357 291.764 864.36 284.205 864.36H233.595C226.037 864.36 218.788 861.357 213.443 856.013C208.098 850.668 205.095 843.419 205.095 835.86Z" fill="#FF9B2E" stroke="black" stroke-width="3"/>
<path d="M396.665 723.58L375.455 690.66" stroke="#4B6A7D" stroke-width="5" stroke-miterlimit="10"/>
<path d="M424.055 798.92C423.095 797.952 421.828 797.348 420.471 797.21C419.115 797.072 417.752 797.409 416.617 798.163C415.481 798.918 414.642 800.043 414.243 801.347C413.844 802.651 413.91 804.053 414.43 805.314C414.949 806.574 415.89 807.616 417.092 808.26C418.293 808.905 419.681 809.112 421.019 808.848C422.357 808.583 423.561 807.862 424.427 806.809C425.292 805.755 425.765 804.434 425.765 803.07C425.775 802.299 425.628 801.534 425.334 800.82C425.041 800.107 424.606 799.461 424.055 798.92ZM419.895 790.16C421.255 790.17 422.576 789.707 423.633 788.851C424.689 787.995 425.416 786.799 425.688 785.466C425.96 784.134 425.762 782.749 425.126 781.547C424.491 780.344 423.457 779.4 422.203 778.875C420.949 778.35 419.551 778.277 418.249 778.668C416.946 779.059 415.82 779.891 415.063 781.02C414.305 782.149 413.963 783.506 414.095 784.859C414.226 786.213 414.824 787.478 415.785 788.44C416.319 788.989 416.958 789.424 417.665 789.72C418.371 790.016 419.13 790.165 419.895 790.16Z" fill="#1F688C"/>
<path d="M441.995 736.22L428.705 718.93H364.615L351.325 736.22C350.052 737.815 349.348 739.789 349.325 741.83V847.09C349.379 848.779 349.867 850.426 350.743 851.871C351.618 853.317 352.853 854.511 354.325 855.34C358.435 857.9 363.675 861.86 364.045 865.65H429.355C429.715 861.86 434.955 857.9 439.065 855.34C440.527 854.499 441.748 853.297 442.611 851.849C443.474 850.401 443.951 848.755 443.995 847.07V741.83C443.975 739.789 443.27 737.814 441.995 736.22Z" fill="#1779A0"/>
<path d="M597.025 759.99C598.4 759.668 599.798 759.451 601.205 759.34C605.026 759.062 608.861 759.629 612.438 761.002C616.014 762.375 619.244 764.519 621.898 767.281C624.552 770.044 626.564 773.358 627.792 776.986C629.02 780.615 629.433 784.47 629.001 788.277C628.57 792.083 627.305 795.748 625.297 799.01C623.288 802.272 620.585 805.051 617.38 807.15C614.176 809.249 610.548 810.616 606.755 811.153C602.962 811.691 599.097 811.386 595.435 810.26" stroke="#4B6A7D" stroke-width="5" stroke-miterlimit="10"/>
<path d="M490.385 835.86V751.55H597.985V835.86C597.985 843.419 594.983 850.668 589.638 856.013C584.293 861.357 577.044 864.36 569.485 864.36H518.885C511.327 864.36 504.078 861.357 498.733 856.013C493.388 850.668 490.385 843.419 490.385 835.86Z" fill="#FF9B2E" stroke="black" stroke-width="3"/>
<path d="M1404.18 819.34C1404.18 820.666 1403.79 821.963 1403.05 823.066C1402.31 824.17 1401.27 825.03 1400.04 825.538C1398.82 826.047 1397.47 826.18 1396.17 825.922C1394.87 825.664 1393.68 825.025 1392.74 824.088C1391.8 823.15 1391.16 821.955 1390.9 820.655C1390.65 819.354 1390.78 818.006 1391.29 816.782C1391.8 815.557 1392.66 814.511 1393.76 813.775C1394.86 813.04 1396.16 812.648 1397.49 812.65C1399.26 812.653 1400.96 813.359 1402.21 814.613C1403.47 815.867 1404.17 817.567 1404.18 819.34ZM1396.93 804.95C1396.93 805.939 1396.63 806.906 1396.08 807.728C1395.53 808.55 1394.75 809.191 1393.84 809.57C1392.93 809.948 1391.92 810.047 1390.95 809.854C1389.98 809.661 1389.09 809.185 1388.39 808.486C1387.69 807.786 1387.21 806.896 1387.02 805.926C1386.83 804.956 1386.93 803.95 1387.31 803.037C1387.68 802.123 1388.33 801.342 1389.15 800.793C1389.97 800.243 1390.94 799.95 1391.93 799.95C1393.25 799.95 1394.52 800.477 1395.46 801.415C1396.4 802.352 1396.93 803.624 1396.93 804.95ZM1400.24 787.85C1400.24 788.479 1400.05 789.094 1399.7 789.617C1399.35 790.14 1398.85 790.547 1398.27 790.788C1397.69 791.029 1397.05 791.092 1396.44 790.969C1395.82 790.846 1395.25 790.543 1394.81 790.099C1394.36 789.654 1394.06 789.087 1393.94 788.471C1393.81 787.854 1393.88 787.214 1394.12 786.633C1394.36 786.052 1394.77 785.555 1395.29 785.206C1395.81 784.857 1396.43 784.67 1397.06 784.67C1397.9 784.67 1398.71 785.005 1399.3 785.602C1399.9 786.198 1400.24 787.007 1400.24 787.85ZM1411.89 798C1411.88 799.01 1411.58 799.997 1411.02 800.836C1410.46 801.675 1409.66 802.329 1408.72 802.714C1407.79 803.099 1406.76 803.199 1405.77 803.001C1404.78 802.802 1403.87 802.315 1403.16 801.6C1402.44 800.885 1401.96 799.974 1401.76 798.983C1401.57 797.992 1401.67 796.965 1402.06 796.032C1402.44 795.099 1403.1 794.302 1403.94 793.741C1404.78 793.18 1405.77 792.88 1406.78 792.88C1407.45 792.88 1408.11 793.013 1408.73 793.27C1409.35 793.528 1409.92 793.905 1410.39 794.38C1410.87 794.856 1411.24 795.42 1411.5 796.042C1411.76 796.663 1411.89 797.328 1411.89 798Z" fill="white"/>
<path d="M1398.49 819.77L1396.49 818.91L1404.41 800.6L1390.22 806.92L1396.02 787.54L1398.11 788.17L1393.68 802.99L1408.64 796.32L1398.49 819.77ZM556.405 817.64C556.407 818.966 556.016 820.262 555.281 821.365C554.546 822.468 553.5 823.329 552.276 823.837C551.052 824.346 549.705 824.48 548.404 824.223C547.104 823.965 545.909 823.328 544.971 822.391C544.033 821.455 543.394 820.261 543.135 818.961C542.876 817.661 543.008 816.313 543.514 815.089C544.021 813.864 544.88 812.817 545.982 812.08C547.084 811.343 548.38 810.95 549.705 810.95C551.481 810.95 553.183 811.655 554.44 812.909C555.696 814.163 556.403 815.865 556.405 817.64ZM549.155 803.26C549.155 804.249 548.862 805.216 548.313 806.038C547.763 806.86 546.982 807.501 546.069 807.88C545.155 808.258 544.15 808.357 543.18 808.164C542.21 807.971 541.319 807.495 540.62 806.796C539.921 806.096 539.444 805.206 539.251 804.236C539.059 803.266 539.158 802.26 539.536 801.347C539.914 800.433 540.555 799.652 541.378 799.103C542.2 798.553 543.166 798.26 544.155 798.26C545.481 798.26 546.753 798.787 547.691 799.725C548.629 800.662 549.155 801.934 549.155 803.26ZM552.465 786.16C552.465 786.789 552.279 787.404 551.929 787.927C551.58 788.45 551.083 788.857 550.502 789.098C549.921 789.339 549.282 789.402 548.665 789.279C548.048 789.156 547.482 788.854 547.037 788.409C546.592 787.964 546.289 787.397 546.167 786.781C546.044 786.164 546.107 785.524 546.347 784.943C546.588 784.362 546.996 783.866 547.519 783.516C548.042 783.167 548.656 782.98 549.285 782.98C550.128 782.983 550.935 783.319 551.531 783.915C552.127 784.51 552.463 785.318 552.465 786.16ZM564.105 796.34C564.105 797.351 563.806 798.339 563.244 799.179C562.683 800.02 561.885 800.674 560.951 801.061C560.017 801.448 558.99 801.549 557.998 801.352C557.007 801.155 556.097 800.668 555.382 799.954C554.667 799.239 554.181 798.328 553.984 797.337C553.786 796.346 553.888 795.318 554.274 794.385C554.661 793.451 555.316 792.653 556.156 792.091C556.997 791.53 557.985 791.23 558.995 791.23C559.666 791.23 560.331 791.362 560.951 791.619C561.571 791.876 562.134 792.252 562.609 792.727C563.083 793.201 563.46 793.765 563.716 794.385C563.973 795.005 564.105 795.669 564.105 796.34Z" fill="white"/>
<path d="M550.705 818.08L548.705 817.21L556.625 798.9L542.445 805.22L548.235 785.84L550.325 786.47L545.895 801.29L560.865 794.63L550.705 818.08ZM263.655 818.09C263.657 819.416 263.266 820.712 262.531 821.815C261.796 822.918 260.75 823.779 259.526 824.287C258.302 824.796 256.955 824.93 255.654 824.673C254.354 824.415 253.159 823.778 252.221 822.841C251.283 821.905 250.644 820.711 250.385 819.411C250.126 818.111 250.258 816.763 250.764 815.539C251.271 814.314 252.13 813.267 253.232 812.53C254.334 811.793 255.63 811.4 256.955 811.4C258.731 811.4 260.433 812.105 261.69 813.359C262.946 814.613 263.653 816.315 263.655 818.09ZM256.405 803.71C256.405 804.699 256.112 805.666 255.563 806.488C255.013 807.31 254.232 807.951 253.319 808.33C252.405 808.708 251.4 808.807 250.43 808.614C249.46 808.421 248.569 807.945 247.87 807.246C247.171 806.546 246.694 805.656 246.501 804.686C246.309 803.716 246.408 802.71 246.786 801.797C247.164 800.883 247.805 800.102 248.628 799.553C249.45 799.003 250.417 798.71 251.405 798.71C252.732 798.71 254.003 799.237 254.941 800.175C255.879 801.112 256.405 802.384 256.405 803.71ZM259.715 786.61C259.715 787.239 259.529 787.854 259.18 788.377C258.83 788.9 258.333 789.307 257.752 789.548C257.171 789.789 256.532 789.852 255.915 789.729C255.298 789.606 254.732 789.303 254.287 788.859C253.842 788.414 253.539 787.847 253.417 787.231C253.294 786.614 253.357 785.974 253.598 785.393C253.838 784.812 254.246 784.315 254.769 783.966C255.292 783.617 255.906 783.43 256.535 783.43C257.379 783.43 258.188 783.765 258.784 784.362C259.38 784.958 259.715 785.767 259.715 786.61ZM271.365 796.75C271.367 797.764 271.069 798.755 270.507 799.598C269.945 800.442 269.145 801.1 268.209 801.488C267.273 801.877 266.243 801.979 265.249 801.782C264.255 801.585 263.342 801.097 262.625 800.381C261.908 799.664 261.421 798.751 261.223 797.757C261.026 796.762 261.128 795.732 261.517 794.796C261.906 793.86 262.564 793.061 263.407 792.499C264.251 791.937 265.242 791.638 266.255 791.64C267.611 791.64 268.91 792.179 269.869 793.137C270.827 794.095 271.365 795.395 271.365 796.75Z" fill="white"/>
<path d="M257.965 818.53L255.955 817.66L263.885 799.35L249.695 805.67L255.485 786.29L257.585 786.92L253.145 801.74L268.115 795.08L257.965 818.53ZM409.175 814.23L409.125 792.35L398.395 810.37H394.595L383.915 792.82V814.23H375.995V777.76H382.975L396.625 800.43L410.065 777.76H416.995L417.095 814.23H409.175Z" fill="white"/>
<g filter="url(#filter1_b_1_116)">
<path d="M1330 602H941.199C938.723 602.001 936.319 602.838 934.377 604.375C932.435 605.912 931.069 608.06 930.499 610.47L876.439 839.29H735.509C735.509 839.29 727.699 879.63 773.239 879.63H1269.63C1272.11 879.629 1274.51 878.792 1276.45 877.255C1278.39 875.718 1279.76 873.57 1280.33 871.16L1340.72 615.53C1341.1 613.914 1341.11 612.232 1340.75 610.61C1340.39 608.989 1339.67 607.471 1338.64 606.169C1337.6 604.867 1336.29 603.816 1334.8 603.094C1333.3 602.372 1331.66 601.998 1330 602Z" fill="url(#paint0_linear_1_116)"/>
</g>
<path d="M1100.85 752.8C1100.85 755.964 1101.79 759.058 1103.55 761.689C1105.3 764.32 1107.8 766.371 1110.73 767.582C1113.65 768.793 1116.87 769.11 1119.97 768.492C1123.08 767.875 1125.93 766.351 1128.16 764.113C1130.4 761.876 1131.93 759.025 1132.54 755.921C1133.16 752.818 1132.84 749.6 1131.63 746.677C1130.42 743.753 1128.37 741.254 1125.74 739.496C1123.11 737.738 1120.01 736.8 1116.85 736.8C1112.61 736.8 1108.54 738.486 1105.54 741.486C1102.54 744.487 1100.85 748.556 1100.85 752.8Z" fill="white"/>
<mask id="mask1_1_116" style="mask-type:luminance" maskUnits="userSpaceOnUse" x="1100" y="736" width="33" height="33">
<path d="M1100.85 752.8C1100.85 755.964 1101.79 759.058 1103.55 761.689C1105.3 764.32 1107.8 766.371 1110.73 767.582C1113.65 768.793 1116.87 769.11 1119.97 768.492C1123.08 767.875 1125.93 766.351 1128.16 764.113C1130.4 761.876 1131.93 759.025 1132.54 755.921C1133.16 752.818 1132.84 749.6 1131.63 746.677C1130.42 743.753 1128.37 741.254 1125.74 739.496C1123.11 737.738 1120.01 736.8 1116.85 736.8C1112.61 736.8 1108.54 738.486 1105.54 741.486C1102.54 744.487 1100.85 748.556 1100.85 752.8Z" fill="white"/>
</mask>
<g mask="url(#mask1_1_116)">
<path d="M1100.85 736.81H1132.82V768.78H1100.85V736.81Z" fill="white"/>
</g>
<path d="M996 692.06V812.4H1017.33V733.67L1056.88 798.67H1066.88L1103.35 737.78C1100.18 737.731 1097.07 736.905 1094.3 735.374C1091.53 733.843 1089.17 731.654 1087.44 729L1062.24 771.85L1014.44 692.06H996Z" fill="white"/>
<mask id="mask2_1_116" style="mask-type:luminance" maskUnits="userSpaceOnUse" x="996" y="692" width="108" height="121">
<path d="M996 692.06V812.4H1017.33V733.67L1056.88 798.67H1066.88L1103.35 737.78C1100.18 737.731 1097.07 736.905 1094.3 735.374C1091.53 733.843 1089.17 731.654 1087.44 729L1062.24 771.85L1014.44 692.06H996Z" fill="white"/>
</mask>
<g mask="url(#mask2_1_116)">
<path d="M996 692.06H1103.32V812.43H996V692.06Z" fill="white"/>
</g>
<path d="M1091.71 718.4C1091.71 720.756 1092.41 723.061 1093.71 725.021C1095.02 726.981 1096.88 728.509 1099.06 729.412C1101.23 730.314 1103.63 730.551 1105.94 730.092C1108.25 729.632 1110.38 728.498 1112.04 726.832C1113.71 725.165 1114.84 723.042 1115.3 720.731C1115.76 718.42 1115.52 716.024 1114.62 713.848C1113.72 711.671 1112.19 709.811 1110.23 708.503C1108.27 707.195 1105.97 706.498 1103.61 706.5C1100.45 706.5 1097.43 707.754 1095.2 709.985C1092.96 712.217 1091.71 715.244 1091.71 718.4Z" fill="white"/>
<mask id="mask3_1_116" style="mask-type:luminance" maskUnits="userSpaceOnUse" x="1091" y="706" width="25" height="25">
<path d="M1091.71 718.4C1091.71 720.756 1092.41 723.061 1093.71 725.021C1095.02 726.981 1096.88 728.509 1099.06 729.412C1101.23 730.314 1103.63 730.551 1105.94 730.092C1108.25 729.632 1110.38 728.498 1112.04 726.832C1113.71 725.165 1114.84 723.042 1115.3 720.731C1115.76 718.42 1115.52 716.024 1114.62 713.848C1113.72 711.671 1112.19 709.811 1110.23 708.503C1108.27 707.195 1105.97 706.498 1103.61 706.5C1100.45 706.5 1097.43 707.754 1095.2 709.985C1092.96 712.217 1091.71 715.244 1091.71 718.4Z" fill="white"/>
</mask>
<g mask="url(#mask3_1_116)">
<path d="M1091.71 706.53H1115.52V730.34H1091.71V706.53Z" fill="white"/>
</g>
<path d="M1108.23 677.59C1108.23 679.094 1108.67 680.564 1109.51 681.815C1110.34 683.066 1111.53 684.042 1112.91 684.619C1114.3 685.195 1115.83 685.347 1117.31 685.055C1118.78 684.763 1120.14 684.04 1121.2 682.978C1122.26 681.915 1122.99 680.561 1123.28 679.086C1123.58 677.612 1123.43 676.083 1122.85 674.694C1122.28 673.305 1121.3 672.117 1120.05 671.282C1118.8 670.446 1117.33 670 1115.83 670C1113.82 670 1111.88 670.799 1110.46 672.222C1109.03 673.646 1108.23 675.576 1108.23 677.59Z" fill="white"/>
<mask id="mask4_1_116" style="mask-type:luminance" maskUnits="userSpaceOnUse" x="1108" y="670" width="16" height="16">
<path d="M1108.23 677.59C1108.23 679.094 1108.67 680.564 1109.51 681.815C1110.34 683.066 1111.53 684.042 1112.91 684.619C1114.3 685.195 1115.83 685.347 1117.31 685.055C1118.78 684.763 1120.14 684.04 1121.2 682.978C1122.26 681.915 1122.99 680.561 1123.28 679.086C1123.58 677.612 1123.43 676.083 1122.85 674.694C1122.28 673.305 1121.3 672.117 1120.05 671.282C1118.8 670.446 1117.33 670 1115.83 670C1113.82 670 1111.88 670.799 1110.46 672.222C1109.03 673.646 1108.23 675.576 1108.23 677.59Z" fill="white"/>
</mask>
<g mask="url(#mask4_1_116)">
<path d="M1108.23 670H1123.42V685.19H1108.23V670Z" fill="white"/>
</g>
<path d="M1156.23 692.32C1157.83 695.215 1158.67 698.468 1158.67 701.775C1158.67 705.082 1157.83 708.335 1156.23 711.23H1157.62C1184.44 711.23 1201.81 727.57 1201.81 752.5C1201.81 777.43 1184.44 793.77 1157.62 793.77H1128.38V773.15C1124.99 775.088 1121.17 776.145 1117.26 776.226C1113.36 776.306 1109.5 775.407 1106.03 773.61V812.68H1158.65C1197.65 812.68 1224.34 788.61 1224.34 752.5C1224.34 716.39 1197.68 692.32 1158.65 692.32H1156.23Z" fill="white"/>
<mask id="mask5_1_116" style="mask-type:luminance" maskUnits="userSpaceOnUse" x="1106" y="692" width="119" height="121">
<path d="M1156.23 692.32C1157.83 695.215 1158.67 698.468 1158.67 701.775C1158.67 705.082 1157.83 708.335 1156.23 711.23H1157.62C1184.44 711.23 1201.81 727.57 1201.81 752.5C1201.81 777.43 1184.44 793.77 1157.62 793.77H1128.38V773.15C1124.99 775.088 1121.17 776.145 1117.26 776.226C1113.36 776.306 1109.5 775.407 1106.03 773.61V812.68H1158.65C1197.65 812.68 1224.34 788.61 1224.34 752.5C1224.34 716.39 1197.68 692.32 1158.65 692.32H1156.23Z" fill="white"/>
</mask>
<g mask="url(#mask5_1_116)">
<path d="M1106.08 692.32H1224.38V812.69H1106.08V692.32Z" fill="white"/>
</g>
<path d="M1126.82 701.81C1126.82 704.225 1127.53 706.587 1128.87 708.596C1130.21 710.605 1132.12 712.172 1134.35 713.098C1136.58 714.023 1139.04 714.266 1141.41 713.796C1143.78 713.326 1145.95 712.164 1147.66 710.457C1149.37 708.75 1150.53 706.574 1151 704.206C1151.48 701.837 1151.24 699.381 1150.31 697.15C1149.39 694.918 1147.82 693.01 1145.81 691.668C1143.81 690.326 1141.45 689.61 1139.03 689.61C1135.79 689.61 1132.69 690.895 1130.4 693.183C1128.11 695.47 1126.82 698.573 1126.82 701.81Z" fill="white"/>
<mask id="mask6_1_116" style="mask-type:luminance" maskUnits="userSpaceOnUse" x="1126" y="689" width="26" height="26">
<path d="M1126.82 701.81C1126.82 704.225 1127.53 706.587 1128.87 708.596C1130.21 710.605 1132.12 712.172 1134.35 713.098C1136.58 714.023 1139.04 714.266 1141.41 713.796C1143.78 713.326 1145.95 712.164 1147.66 710.457C1149.37 708.75 1150.53 706.574 1151 704.206C1151.48 701.837 1151.24 699.381 1150.31 697.15C1149.39 694.918 1147.82 693.01 1145.81 691.668C1143.81 690.326 1141.45 689.61 1139.03 689.61C1135.79 689.61 1132.69 690.895 1130.4 693.183C1128.11 695.47 1126.82 698.573 1126.82 701.81Z" fill="white"/>
</mask>
<g mask="url(#mask6_1_116)">
<path d="M1126.82 689.61H1151.23V714.02H1126.82V689.61Z" fill="white"/>
</g>
<path d="M1099.49 723.13L1133.37 708.03L1114.45 751.76L1119.23 753.83L1143.48 697.82L1107.74 713.74L1118.32 678.34L1113.32 676.85L1099.49 723.13Z" fill="white"/>
<mask id="mask7_1_116" style="mask-type:luminance" maskUnits="userSpaceOnUse" x="1099" y="676" width="45" height="78">
<path d="M1099.49 723.13L1133.37 708.03L1114.45 751.76L1119.23 753.83L1143.48 697.82L1107.74 713.74L1118.32 678.34L1113.32 676.85L1099.49 723.13Z" fill="white"/>
</mask>
<g mask="url(#mask7_1_116)">
<path d="M1099.49 676.85H1143.48V753.83H1099.49V676.85Z" fill="white"/>
</g>
<mask id="mask8_1_116" style="mask-type:luminance" maskUnits="userSpaceOnUse" x="1099" y="676" width="45" height="78">
<path d="M1099.49 723.13L1133.37 708.03L1114.45 751.76L1119.23 753.83L1143.48 697.82L1107.74 713.74L1118.32 678.34L1113.32 676.85L1099.49 723.13Z" fill="white"/>
</mask>
<g mask="url(#mask8_1_116)">
<path d="M1099.49 676.85H1143.48V753.83H1099.49V676.85Z" fill="white"/>
</g>
</g>
<defs>
<filter id="filter0_d_1_116" x="1072.91" y="367.927" width="320.87" height="138.741" filterUnits="userSpaceOnUse" color-interpolation-filters="sRGB">
<feFlood flood-opacity="0" result="BackgroundImageFix"/>
<feColorMatrix in="SourceAlpha" type="matrix" values="0 0 0 0 0 0 0 0 0 0 0 0 0 0 0 0 0 0 127 0" result="hardAlpha"/>
<feOffset dy="4"/>
<feGaussianBlur stdDeviation="2"/>
<feComposite in2="hardAlpha" operator="out"/>
<feColorMatrix type="matrix" values="0 0 0 0 0 0 0 0 0 0 0 0 0 0 0 0 0 0 0.25 0"/>
<feBlend mode="normal" in2="BackgroundImageFix" result="effect1_dropShadow_1_116"/>
<feBlend mode="normal" in="SourceGraphic" in2="effect1_dropShadow_1_116" result="shape"/>
</filter>
<filter id="filter1_b_1_116" x="731" y="598" width="614.014" height="285.63" filterUnits="userSpaceOnUse" color-interpolation-filters="sRGB">
<feFlood flood-opacity="0" result="BackgroundImageFix"/>
<feGaussianBlur in="BackgroundImageFix" stdDeviation="2"/>
<feComposite in2="SourceAlpha" operator="in" result="effect1_backgroundBlur_1_116"/>
<feBlend mode="normal" in="SourceGraphic" in2="effect1_backgroundBlur_1_116" result="shape"/>
</filter>
<linearGradient id="paint0_linear_1_116" x1="852.999" y1="880.1" x2="1057.44" y2="469.064" gradientUnits="userSpaceOnUse">
<stop stop-color="#113649"/>
<stop offset="1" stop-color="#4F8B9E"/>
</linearGradient>
<clipPath id="clip0_1_116">
<rect width="1617" height="866" fill="white"/>
</clipPath>
</defs>
</svg>
