<svg width="217" height="55" viewBox="0 0 217 55" fill="none" xmlns="http://www.w3.org/2000/svg">
<path d="M24.98 27.4507L24.9413 10.98L16.864 24.548H14.0013L5.96133 11.3333V27.4507H0V0H5.25467L15.5293 17.0587L25.6467 0H30.8627L30.9413 27.4507H24.98ZM62.3827 22.352V27.4507H41.128V0H61.8734V5.09866H47.4413V11.0587H60.1867V15.9987H47.4413V22.352H62.3827ZM77.0453 5.17599H68.26V0H92.1813V5.17599H83.3987V27.4507H77.0453V5.17599ZM112.465 16.7453L108.113 6.23599L103.76 16.7453H112.465ZM114.465 21.568H101.72L99.2893 27.4507H92.78L105.016 0H111.289L123.564 27.4507H116.899L114.465 21.568Z" fill="#39667C"/>
<path d="M142.32 22.2347C147.773 22.2347 151.34 18.9813 151.34 13.7253C151.34 8.46933 147.773 5.216 142.32 5.216H136.517V22.2347H142.32ZM130.164 0H142.635C151.616 0 157.772 5.41199 157.772 13.7253C157.772 22.0387 151.616 27.4507 142.635 27.4507H130.164V0ZM181.019 16.7453L176.665 6.23599L172.312 16.7453H181.019ZM183.019 21.568H170.275L167.843 27.4507H161.332L173.568 0H179.841L192.117 27.4507H185.451L183.019 21.568ZM201.503 5.17599H192.717V0H216.639V5.17599H207.855V27.4507H201.503V5.17599Z" fill="#4FC2F0"/>
<path d="M0.397339 52.792L1.228 50.9293C2.26133 51.76 3.90001 52.3493 5.48801 52.3493C7.49601 52.3493 8.34534 51.6307 8.34534 50.672C8.34534 47.8867 0.67334 49.7133 0.67334 44.9187C0.67334 42.8347 2.33466 41.0653 5.87466 41.0653C7.42266 41.0653 9.04668 41.4707 10.1707 42.2067L9.41602 44.0707C8.25335 43.388 6.98134 43.056 5.85468 43.056C3.86401 43.056 3.05334 43.8307 3.05334 44.8067C3.05334 47.5547 10.7054 45.7653 10.7054 50.5067C10.7054 52.5707 9.02801 54.34 5.48801 54.34C3.47734 54.34 1.46801 53.7133 0.397339 52.792ZM26.8293 47.7027C26.8293 45.0653 24.892 43.1653 22.292 43.1653C19.692 43.1653 17.7573 45.0653 17.7573 47.7027C17.7573 50.3387 19.692 52.24 22.292 52.24C24.892 52.24 26.8293 50.3387 26.8293 47.7027ZM15.3413 47.7027C15.3413 43.8853 18.292 41.0653 22.292 41.0653C26.2947 41.0653 29.2453 43.8667 29.2453 47.7027C29.2453 51.5387 26.2947 54.34 22.292 54.34C18.292 54.34 15.3413 51.5187 15.3413 47.7027ZM34.9707 41.2493H37.3693V52.128H44.1187V54.156H34.9707V41.2493ZM48.9 48.5333V41.2493H51.2987V48.44C51.2987 51.0947 52.4973 52.24 54.5813 52.24C56.664 52.24 57.844 51.0947 57.844 48.44V41.2493H60.204V48.5333C60.204 52.2933 58.084 54.34 54.5613 54.34C51.0213 54.34 48.9 52.2933 48.9 48.5333ZM69.1213 43.2773H64.8427V41.2493H75.7947V43.2773H71.5173V54.156H69.1213V43.2773ZM80.7827 41.2493H83.18V54.156H80.7827V41.2493ZM100.407 47.7027C100.407 45.0653 98.4693 43.1653 95.8707 43.1653C93.2707 43.1653 91.3347 45.0653 91.3347 47.7027C91.3347 50.3387 93.2707 52.24 95.8707 52.24C98.4693 52.24 100.407 50.3387 100.407 47.7027ZM88.9187 47.7027C88.9187 43.8853 91.8707 41.0653 95.8707 41.0653C99.872 41.0653 102.823 43.8667 102.823 47.7027C102.823 51.5387 99.872 54.34 95.8707 54.34C91.8707 54.34 88.9187 51.5187 88.9187 47.7027ZM120.019 41.2493V54.156H118.045L110.929 45.416V54.156H108.549V41.2493H110.521L117.64 49.9893V41.2493H120.019ZM125.579 52.792L126.409 50.9293C127.441 51.76 129.083 52.3493 130.669 52.3493C132.677 52.3493 133.527 51.6307 133.527 50.672C133.527 47.8867 125.856 49.7133 125.856 44.9187C125.856 42.8347 127.516 41.0653 131.056 41.0653C132.605 41.0653 134.227 41.4707 135.352 42.2067L134.596 44.0707C133.435 43.388 132.163 43.056 131.039 43.056C129.045 43.056 128.235 43.8307 128.235 44.8067C128.235 47.5547 135.887 45.7653 135.887 50.5067C135.887 52.5707 134.209 54.34 130.669 54.34C128.659 54.34 126.649 53.7133 125.579 52.792Z" fill="#173245"/>
</svg>
