<svg xmlns="http://www.w3.org/2000/svg" width="366" height="82" fill="none" viewBox="0 0 366 82">
  <path fill="#39667C" d="m174.012 54.623-.039-16.471-8.077 13.568h-2.863l-8.04-13.215v16.117h-5.961v-27.45h5.255l10.274 17.058 10.118-17.058h5.216l.078 27.45h-5.961Zm37.403-5.1v5.1H190.16V27.172h20.745v5.098h-14.432v5.96h12.746v4.94h-12.746v6.354h14.942Zm14.662-17.175h-8.785v-5.176h23.921v5.176h-8.782v22.275h-6.354V32.348Zm35.42 11.57-4.352-10.51-4.353 10.51h8.705Zm2 4.822h-12.745l-2.431 5.883h-6.509l12.236-27.451h6.273l12.275 27.45h-6.665l-2.434-5.882Z"/>
  <path fill="#4FC2F0" d="M291.352 49.406c5.453 0 9.02-3.253 9.02-8.509s-3.567-8.51-9.02-8.51h-5.803v17.02h5.803Zm-12.156-22.234h12.471c8.981 0 15.137 5.412 15.137 13.725 0 8.313-6.156 13.726-15.137 13.726h-12.471V27.172Zm50.855 16.745-4.354-10.51-4.353 10.51h8.707Zm2 4.823h-12.744l-2.432 5.883h-6.511L322.6 27.172h6.273l12.276 27.45h-6.666l-2.432-5.882Zm18.484-16.392h-8.786v-5.176h23.922v5.176h-8.784v22.275h-6.352V32.348Z"/>
  <path fill="#173245" d="m149.429 79.964.831-1.863c1.033.83 2.672 1.42 4.26 1.42 2.008 0 2.857-.719 2.857-1.677 0-2.786-7.672-.959-7.672-5.753 0-2.084 1.662-3.854 5.202-3.854 1.548 0 3.172.405 4.296 1.141l-.755 1.864c-1.163-.682-2.435-1.014-3.561-1.014-1.991 0-2.802.775-2.802 1.75 0 2.749 7.652.96 7.652 5.7 0 2.065-1.677 3.834-5.217 3.834-2.011 0-4.02-.627-5.091-1.548Zm26.432-5.09c0-2.637-1.937-4.537-4.537-4.537-2.6 0-4.535 1.9-4.535 4.537 0 2.636 1.935 4.538 4.535 4.538s4.537-1.902 4.537-4.538Zm-11.488 0c0-3.817 2.951-6.637 6.951-6.637 4.003 0 6.953 2.802 6.953 6.638 0 3.835-2.95 6.637-6.953 6.637-4 0-6.951-2.822-6.951-6.638Zm19.63-6.453h2.398V79.3h6.75v2.028h-9.148V68.42Zm13.929 7.284v-7.284h2.399v7.19c0 2.655 1.198 3.8 3.282 3.8 2.083 0 3.263-1.145 3.263-3.8v-7.19h2.36v7.284c0 3.76-2.12 5.807-5.643 5.807-3.54 0-5.661-2.047-5.661-5.807Zm20.221-5.256h-4.278v-2.028h10.952v2.028h-4.278v10.879h-2.396V70.449Zm11.662-2.028h2.397v12.907h-2.397V68.42Zm19.624 6.453c0-2.637-1.938-4.537-4.536-4.537-2.6 0-4.536 1.9-4.536 4.537 0 2.636 1.936 4.538 4.536 4.538 2.598 0 4.536-1.902 4.536-4.538Zm-11.488 0c0-3.817 2.952-6.637 6.952-6.637 4.001 0 6.952 2.802 6.952 6.638 0 3.835-2.951 6.637-6.952 6.637-4 0-6.952-2.822-6.952-6.638Zm31.1-6.453v12.907h-1.974l-7.116-8.74v8.74h-2.38V68.42h1.972l7.119 8.74v-8.74h2.379Zm5.56 11.543.83-1.863c1.032.83 2.674 1.42 4.26 1.42 2.008 0 2.858-.719 2.858-1.677 0-2.786-7.671-.959-7.671-5.753 0-2.084 1.66-3.854 5.2-3.854 1.549 0 3.171.405 4.296 1.141l-.756 1.864c-1.161-.682-2.433-1.014-3.557-1.014-1.994 0-2.804.775-2.804 1.75 0 2.749 7.652.96 7.652 5.7 0 2.065-1.678 3.834-5.218 3.834-2.01 0-4.02-.627-5.09-1.548Z"/>
  <mask id="a" width="20" height="19" x="59" y="38" maskUnits="userSpaceOnUse" style="mask-type:luminance">
    <path fill="#fff" d="M78.28 47.37a9.146 9.146 0 0 1-9.147 9.145 9.145 9.145 0 0 1-9.145-9.146 9.146 9.146 0 1 1 18.292 0Z"/>
  </mask>
  <g mask="url(#a)">
    <path fill="url(#b)" d="M78.28 47.37a9.146 9.146 0 0 1-9.147 9.145 9.145 9.145 0 0 1-9.145-9.146 9.146 9.146 0 1 1 18.292 0Z"/>
  </g>
  <mask id="c" width="62" height="70" x="0" y="12" maskUnits="userSpaceOnUse" style="mask-type:luminance">
    <path fill="#fff" d="m52.297 33.76-14.42 24.508-27.35-45.647H0v68.865h12.2V36.428l22.627 37.187h5.705L61.4 38.78a11.072 11.072 0 0 1-9.102-5.02Z"/>
  </mask>
  <g mask="url(#c)">
    <path fill="url(#d)" d="m52.297 33.76-14.42 24.508-27.35-45.647H0v68.865h12.2V36.428l22.627 37.187h5.705L61.4 38.78a11.072 11.072 0 0 1-9.102-5.02Z"/>
  </g>
  <mask id="e" width="15" height="15" x="54" y="20" maskUnits="userSpaceOnUse" style="mask-type:luminance">
    <path fill="#fff" d="M68.377 27.71a6.81 6.81 0 0 1-6.81 6.81 6.81 6.81 0 1 1 0-13.62 6.81 6.81 0 0 1 6.81 6.81Z"/>
  </mask>
  <g mask="url(#e)">
    <path fill="url(#f)" d="M68.377 27.71a6.81 6.81 0 0 1-6.81 6.81 6.81 6.81 0 1 1 0-13.62 6.81 6.81 0 0 1 6.81 6.81Z"/>
  </g>
  <mask id="g" width="9" height="9" x="64" y="0" maskUnits="userSpaceOnUse" style="mask-type:luminance">
    <path fill="#fff" d="M72.897 4.344a4.345 4.345 0 1 1-8.69 0 4.345 4.345 0 0 1 8.69 0Z"/>
  </mask>
  <g mask="url(#g)">
    <path fill="url(#h)" d="M72.897 4.344a4.345 4.345 0 1 1-8.69 0 4.345 4.345 0 0 1 8.69 0Z"/>
  </g>
  <mask id="i" width="69" height="70" x="62" y="12" maskUnits="userSpaceOnUse" style="mask-type:luminance">
    <path fill="#fff" d="M93.082 12.768h-1.41a11.181 11.181 0 0 1 1.404 5.434c0 1.95-.5 3.787-1.376 5.387h.792c15.347 0 25.284 9.346 25.284 23.611s-9.937 23.611-25.284 23.611H75.767V59.016a13.32 13.32 0 0 1-6.634 1.762c-2.217 0-4.31-.544-6.155-1.5v22.355h30.104c22.332 0 37.581-13.773 37.581-34.433s-15.249-34.432-37.581-34.432Z"/>
  </mask>
  <g mask="url(#i)">
    <path fill="url(#j)" d="M93.082 12.768h-1.41a11.181 11.181 0 0 1 1.404 5.434c0 1.95-.5 3.787-1.376 5.387h.792c15.347 0 25.284 9.346 25.284 23.611s-9.937 23.611-25.284 23.611H75.767V59.016a13.32 13.32 0 0 1-6.634 1.762c-2.217 0-4.31-.544-6.155-1.5v22.355h30.104c22.332 0 37.581-13.773 37.581-34.433s-15.249-34.432-37.581-34.432Z"/>
  </g>
  <mask id="k" width="15" height="15" x="74" y="11" maskUnits="userSpaceOnUse" style="mask-type:luminance">
    <path fill="#fff" d="M88.813 18.202a6.984 6.984 0 1 1-13.968 0 6.984 6.984 0 0 1 13.968 0Z"/>
  </mask>
  <g mask="url(#k)">
    <path fill="url(#l)" d="M88.813 18.202a6.984 6.984 0 1 1-13.968 0 6.984 6.984 0 0 1 13.968 0Z"/>
  </g>
  <mask id="m" width="26" height="45" x="59" y="3" maskUnits="userSpaceOnUse" style="mask-type:luminance">
    <path fill="#fff" d="m70.502 47.961-2.738-1.185L78.59 21.76l-19.384 8.635 7.915-26.477 2.86.855-6.056 20.253 20.447-9.108-13.87 32.044Z"/>
  </mask>
  <g mask="url(#m)">
    <path fill="url(#n)" d="m70.502 47.961-2.738-1.185L78.59 21.76l-19.384 8.635 7.915-26.477 2.86.855-6.056 20.253 20.447-9.108-13.87 32.044Z"/>
  </g>
  <defs>
    <linearGradient id="b" x1="69.133" x2="69.133" y1="2.425" y2="78.809" gradientUnits="userSpaceOnUse">
      <stop stop-color="#6CCFEC"/>
      <stop offset=".235" stop-color="#4FC2F0"/>
      <stop offset="1" stop-color="#377CB9"/>
    </linearGradient>
    <linearGradient id="d" x1="30.699" x2="30.699" y1="26.122" y2="68.934" gradientUnits="userSpaceOnUse">
      <stop stop-color="#4F889A"/>
      <stop offset="1" stop-color="#173245"/>
    </linearGradient>
    <linearGradient id="f" x1="61.566" x2="61.566" y1="2.425" y2="78.809" gradientUnits="userSpaceOnUse">
      <stop stop-color="#6CCFEC"/>
      <stop offset=".235" stop-color="#4FC2F0"/>
      <stop offset="1" stop-color="#377CB9"/>
    </linearGradient>
    <linearGradient id="h" x1="68.552" x2="68.552" y1="2.425" y2="78.809" gradientUnits="userSpaceOnUse">
      <stop stop-color="#6CCFEC"/>
      <stop offset=".235" stop-color="#4FC2F0"/>
      <stop offset="1" stop-color="#377CB9"/>
    </linearGradient>
    <linearGradient id="j" x1="96.82" x2="96.82" y1="26.122" y2="68.934" gradientUnits="userSpaceOnUse">
      <stop stop-color="#4F889A"/>
      <stop offset="1" stop-color="#173245"/>
    </linearGradient>
    <linearGradient id="l" x1="81.829" x2="81.829" y1="2.425" y2="78.809" gradientUnits="userSpaceOnUse">
      <stop stop-color="#6CCFEC"/>
      <stop offset=".235" stop-color="#4FC2F0"/>
      <stop offset="1" stop-color="#377CB9"/>
    </linearGradient>
    <linearGradient id="n" x1="71.789" x2="71.789" y1="2.425" y2="78.809" gradientUnits="userSpaceOnUse">
      <stop stop-color="#6CCFEC"/>
      <stop offset=".235" stop-color="#4FC2F0"/>
      <stop offset="1" stop-color="#377CB9"/>
    </linearGradient>
  </defs>
</svg>
